<svg width="28" height="28" viewBox="0 0 28 28" fill="none" xmlns="http://www.w3.org/2000/svg" xmlns:xlink="http://www.w3.org/1999/xlink">
<path d="M11.728,2.025L11.728,9.525C11.728,10.188 11.465,10.824 10.996,11.293C10.527,11.762 9.891,12.025 9.228,12.025L1.728,12.025C1.065,12.025 0.429,11.762 -0.04,11.293C-0.509,10.824 -0.772,10.188 -0.772,9.525L-0.772,2.025C-0.772,1.362 -0.509,0.726 -0.04,0.257C0.429,-0.211 1.065,-0.475 1.728,-0.475L9.228,-0.475C9.891,-0.475 10.527,-0.211 10.996,0.257C11.465,0.726 11.728,1.362 11.728,2.025ZM24.228,-0.475L16.728,-0.475C16.065,-0.475 15.429,-0.211 14.96,0.257C14.491,0.726 14.228,1.362 14.228,2.025L14.228,9.525C14.228,10.188 14.491,10.824 14.96,11.293C15.429,11.762 16.065,12.025 16.728,12.025L24.228,12.025C24.891,12.025 25.527,11.762 25.996,11.293C26.465,10.824 26.728,10.188 26.728,9.525L26.728,2.025C26.728,1.362 26.465,0.726 25.996,0.257C25.527,-0.211 24.891,-0.475 24.228,-0.475ZM9.228,14.525L1.728,14.525C1.065,14.525 0.429,14.789 -0.04,15.257C-0.509,15.726 -0.772,16.362 -0.772,17.025L-0.772,24.525C-0.772,25.188 -0.509,25.824 -0.04,26.293C0.429,26.762 1.065,27.025 1.728,27.025L9.228,27.025C9.891,27.025 10.527,26.762 10.996,26.293C11.465,25.824 11.728,25.188 11.728,24.525L11.728,17.025C11.728,16.362 11.465,15.726 10.996,15.257C10.527,14.789 9.891,14.525 9.228,14.525ZM24.228,14.525L16.728,14.525C16.065,14.525 15.429,14.789 14.96,15.257C14.491,15.726 14.228,16.362 14.228,17.025L14.228,24.525C14.228,25.188 14.491,25.824 14.96,26.293C15.429,26.762 16.065,27.025 16.728,27.025L24.228,27.025C24.891,27.025 25.527,26.762 25.996,26.293C26.465,25.824 26.728,25.188 26.728,24.525L26.728,17.025C26.728,16.362 26.465,15.726 25.996,15.257C25.527,14.789 24.891,14.525 24.228,14.525Z" transform="rotate(0 12.978 13.275)" fill="#9095A1"/>
</svg>
