<svg width="30" height="28" viewBox="0 0 30 28" fill="none" xmlns="http://www.w3.org/2000/svg" xmlns:xlink="http://www.w3.org/1999/xlink">
<path d="M22.522,19.816L28.59,25.882L26.585,27.887L20.519,21.819C18.262,23.628 15.454,24.613 12.561,24.608C5.523,24.608 -0.189,18.896 -0.189,11.858C-0.189,4.82 5.523,-0.892 12.561,-0.892C19.599,-0.892 25.311,4.82 25.311,11.858C25.316,14.751 24.331,17.559 22.522,19.816ZM19.68,18.765C21.478,16.916 22.482,14.437 22.478,11.858C22.478,6.379 18.04,1.942 12.561,1.942C7.082,1.942 2.645,6.379 2.645,11.858C2.645,17.337 7.082,21.775 12.561,21.775C15.14,21.779 17.619,20.775 19.468,18.977L19.68,18.765Z" transform="rotate(0 14.2 13.498)" fill="#565D6D"/>
</svg>
