<svg width="40" height="40" viewBox="0 0 40 40" fill="none" xmlns="http://www.w3.org/2000/svg" xmlns:xlink="http://www.w3.org/1999/xlink">
<path d="M33.074,35.498L34.286,36.71L36.71,34.286L35.498,33.074L33.074,35.498ZM29.784,27.359L28.572,26.147L26.147,28.571L27.359,29.784L29.784,27.359ZM35.498,33.074L29.784,27.359L27.359,29.784L33.074,35.498L35.498,33.074Z" transform="rotate(0 31.429 31.429)" fill="#BDC1CA"/>
<path d="M26.857,17.143C26.857,22.508 22.508,26.857 17.143,26.857L17.143,30.286C24.402,30.286 30.286,24.401 30.286,17.143L26.857,17.143ZM17.143,26.857C11.778,26.857 7.429,22.508 7.429,17.143L4,17.143C4,24.401 9.884,30.286 17.143,30.286L17.143,26.857ZM7.429,17.143C7.429,11.778 11.778,7.429 17.143,7.429L17.143,4C9.884,4 4,9.884 4,17.143L7.429,17.143ZM17.143,7.429C22.508,7.429 26.857,11.778 26.857,17.143L30.286,17.143C30.286,9.884 24.402,4 17.143,4L17.143,7.429Z" transform="rotate(0 17.143 17.143)" fill="#BDC1CA"/>
<path d="M13.143,17.143C13.143,16.082 13.564,15.065 14.314,14.314L11.89,11.89C10.497,13.283 9.714,15.173 9.714,17.143L13.143,17.143ZM14.314,14.314C15.064,13.564 16.082,13.143 17.143,13.143L17.143,9.714C15.173,9.714 13.283,10.497 11.89,11.89L14.314,14.314Z" transform="rotate(0 14.286 14.286)" fill="#BDC1CA"/>
</svg>
