<svg width="12" height="6" viewBox="0 0 12 6" fill="none" xmlns="http://www.w3.org/2000/svg" xmlns:xlink="http://www.w3.org/1999/xlink">
<path d="M10.44,5.466C10.402,5.558 10.338,5.636 10.256,5.691C10.174,5.746 10.077,5.775 9.978,5.775L-0.022,5.775C-0.121,5.775 -0.218,5.746 -0.3,5.691C-0.382,5.636 -0.446,5.558 -0.484,5.467C-0.522,5.375 -0.532,5.275 -0.513,5.178C-0.493,5.08 -0.446,4.991 -0.376,4.921L4.624,-0.079C4.671,-0.125 4.726,-0.162 4.787,-0.187C4.847,-0.212 4.912,-0.225 4.978,-0.225C5.044,-0.225 5.109,-0.212 5.17,-0.187C5.23,-0.162 5.285,-0.125 5.332,-0.079L10.332,4.921C10.402,4.991 10.449,5.081 10.469,5.178C10.488,5.275 10.478,5.375 10.44,5.466Z" transform="rotate(0 4.978 2.775)" fill="#9095A1"/>
</svg>
