<svg width="24" height="14" viewBox="0 0 24 14" fill="none" xmlns="http://www.w3.org/2000/svg" xmlns:xlink="http://www.w3.org/1999/xlink">
<path d="M22.377,2.502L11.752,13.127C11.653,13.225 11.536,13.304 11.407,13.357C11.278,13.411 11.14,13.438 11,13.438C10.86,13.438 10.722,13.411 10.593,13.357C10.464,13.304 10.347,13.225 10.248,13.127L-0.377,2.502C-0.525,2.353 -0.627,2.164 -0.668,1.958C-0.709,1.751 -0.688,1.538 -0.607,1.343C-0.527,1.149 -0.391,0.983 -0.216,0.866C-0.041,0.75 0.165,0.687 0.375,0.688L21.625,0.688C21.835,0.687 22.041,0.75 22.216,0.866C22.391,0.983 22.527,1.149 22.608,1.343C22.688,1.538 22.709,1.751 22.668,1.958C22.627,2.164 22.526,2.353 22.377,2.502Z" transform="rotate(0 11 7.063)" fill="#9095A1"/>
</svg>
